<svg xmlns="http://www.w3.org/2000/svg" viewBox="0 0 640 640"><!--! Font Awesome Pro 7.1.0 by @fontawesome - https://fontawesome.com License - https://fontawesome.com/license (Commercial License) Copyright 2025 Fonticons, Inc. --><path fill="currentColor" d="M256 128L256 192L384 192L384 128C384 92.7 355.3 64 320 64C284.7 64 256 92.7 256 128zM224 224L144 224C135.2 224 128 231.2 128 240L128 448C128 483.3 156.7 512 192 512L448 512C483.3 512 512 483.3 512 448L512 240C512 231.2 504.8 224 496 224L416 224L416 304C416 312.8 408.8 320 400 320C391.2 320 384 312.8 384 304L384 224L256 224L256 304C256 312.8 248.8 320 240 320C231.2 320 224 312.8 224 304L224 224zM224 192L224 128C224 75 267 32 320 32C373 32 416 75 416 128L416 192L496 192C522.5 192 544 213.5 544 240L544 448C544 501 501 544 448 544L192 544C139 544 96 501 96 448L96 240C96 213.5 117.5 192 144 192L224 192z"/></svg>